<svg xmlns="http://www.w3.org/2000/svg" width="1200" height="630" viewBox="0 0 1200 630">
  <defs><linearGradient id="g" x1="0" x2="1" y1="0" y2="1"><stop stop-color="#111827"/><stop offset=".55" stop-color="#192653"/><stop offset="1" stop-color="#05060b"/></linearGradient><linearGradient id="r" x1="0" x2="1"><stop stop-color="#e50914"/><stop offset="1" stop-color="#ff7a7a"/></linearGradient></defs>
  <rect width="1200" height="630" fill="url(#g)"/>
  <circle cx="930" cy="160" r="210" fill="#e50914" opacity=".14"/>
  <circle cx="210" cy="510" r="180" fill="#4f8cff" opacity=".16"/>
  <rect x="86" y="86" width="1028" height="458" rx="40" fill="rgba(255,255,255,.08)" stroke="rgba(255,255,255,.18)"/>
  <text x="120" y="190" font-family="Arial, sans-serif" font-size="42" font-weight="700" fill="#ffffff">2026 Guide</text>
  <text x="120" y="285" font-family="Arial, sans-serif" font-size="72" font-weight="900" fill="#ffffff">Watch Netflix</text>
  <text x="120" y="365" font-family="Arial, sans-serif" font-size="72" font-weight="900" fill="#ffffff">Abroad</text>
  <text x="120" y="430" font-family="Arial, sans-serif" font-size="30" fill="#cbd5e1">Stream securely with a VPN connection</text>
  <rect x="120" y="470" width="330" height="62" rx="31" fill="url(#r)"/>
  <text x="162" y="512" font-family="Arial, sans-serif" font-size="26" font-weight="800" fill="#ffffff">Check VPN Offer</text>
  <g transform="translate(760 170)">
    <rect x="0" y="0" width="240" height="300" rx="32" fill="#0b1020" stroke="rgba(255,255,255,.2)"/>
    <rect x="25" y="35" width="190" height="110" rx="18" fill="#e50914"/>
    <path d="M70 110 L100 70 L122 98 L140 82 L178 130 H62 Z" fill="#fff" opacity=".95"/>
    <path d="M120 175 C88 175 64 199 64 230 V260 H176 V230 C176 199 152 175 120 175 Z" fill="#4f8cff"/>
    <rect x="52" y="236" width="136" height="70" rx="18" fill="#4f8cff"/>
    <circle cx="120" cy="270" r="12" fill="#fff"/>
    <rect x="115" y="270" width="10" height="24" rx="5" fill="#fff"/>
  </g>
</svg>
